<svg width="20" height="18" viewBox="0 0 20 18" fill="none" xmlns="http://www.w3.org/2000/svg">
<path d="M1.24036 10.1789L16.0649 10.2966L11.4843 15.7104C11.2701 15.964 11.1654 16.2923 11.1932 16.623C11.2211 16.9538 11.3792 17.26 11.6328 17.4741C11.8863 17.6883 12.2146 17.793 12.5454 17.7652C12.8762 17.7373 13.1823 17.5792 13.3965 17.3256L19.7058 9.8755C19.7484 9.81619 19.7865 9.75382 19.8198 9.6889C19.8203 9.6264 19.8206 9.58891 19.9086 9.5271C19.9664 9.38423 19.9973 9.23191 19.9997 9.07781C19.9997 8.9237 19.9713 8.7709 19.9158 8.62713C19.9163 8.56463 19.9166 8.52713 19.8296 8.46394C19.7972 8.39851 19.7601 8.33554 19.7186 8.27555L13.5283 0.726168C13.4119 0.584137 13.2656 0.469496 13.0999 0.3904C12.9342 0.311306 12.753 0.2697 12.5694 0.268539C12.2773 0.26565 11.9935 0.365118 11.7671 0.549679C11.6397 0.653607 11.5341 0.78165 11.4563 0.92647C11.3784 1.07129 11.3299 1.23004 11.3135 1.39364C11.2971 1.55723 11.3132 1.72246 11.3607 1.87984C11.4083 2.03723 11.4864 2.18369 11.5907 2.31083L16.0847 7.79669L1.26021 7.67898C0.928698 7.67635 0.609719 7.80552 0.373444 8.03807C0.13717 8.27062 0.00295456 8.58751 0.000322361 8.91902C-0.00230983 9.25053 0.126856 9.5695 0.359409 9.80578C0.591961 10.0421 0.908849 10.1763 1.24036 10.1789Z" fill="#F53838"/>
</svg>
